
<svg width="16px" height="16px" viewBox="0 0 16 16" version="1.1" xmlns="http://www.w3.org/2000/svg" xmlns:xlink="http://www.w3.org/1999/xlink">
    <!-- Generator: Sketch 43.2 (39069) - http://www.bohemiancoding.com/sketch -->
    <desc>Created with Sketch.</desc>
    <defs></defs>
    <g id="Page-1" stroke="none" stroke-width="1" fill="none" fill-rule="evenodd">
        <g id="DGX-Cloud-Services/-Add-a-Service-Copy-(not-for-invision)" transform="translate(-227.000000, -22.000000)" fill="#FFFFFF">
            <g id="Cloud-Nav">
                <g id="Dashboard" transform="translate(227.000000, 22.000000)">
                    <path d="M7.99998222,14.4644089 C4.42984889,14.4644089 1.53651556,11.5701867 1.53651556,7.99916444 C1.53651556,4.42992 4.42984889,1.53569778 7.99998222,1.53569778 C11.56976,1.53569778 14.4634489,4.42992 14.4634489,7.99916444 C14.4634489,11.5701867 11.56976,14.4644089 7.99998222,14.4644089 M7.99998222,5.33333333e-05 C3.58184889,5.33333333e-05 -1.77777778e-05,3.58280889 -1.77777778e-05,7.99916444 C-1.77777778e-05,12.4172978 3.58184889,16.0000533 7.99998222,16.0000533 C12.4179378,16.0000533 15.9989156,12.4172978 15.9989156,7.99916444 C15.9989156,3.58280889 12.4179378,5.33333333e-05 7.99998222,5.33333333e-05" id="Fill-1"></path>
                    <path d="M7.99998222,8.79747556 C7.55927111,8.79747556 7.20140444,8.44085333 7.20140444,7.99907556 C7.20140444,7.55889778 7.55944889,7.20245333 7.99998222,7.20245333 C8.44069333,7.20245333 8.79749333,7.55907556 8.79749333,7.99907556 C8.79749333,8.44085333 8.44069333,8.79747556 7.99998222,8.79747556 M11.9711822,4.00849778 C11.8038933,3.84049778 11.8565156,3.81009778 11.6885156,3.97720889 L8.68638222,6.55907556 C8.47784889,6.45916444 8.24656,6.39800889 7.99998222,6.39800889 C7.11518222,6.39800889 6.39820444,7.11623111 6.39820444,7.99907556 C6.39820444,8.88369778 7.11518222,9.60192 7.99998222,9.60192 C8.88460444,9.60192 9.60104889,8.88369778 9.60104889,7.99907556 C9.60104889,7.78129778 9.55660444,7.57329778 9.47767111,7.38378667 L12.0655822,4.35356444 C12.2325156,4.18627556 12.1391822,4.17720889 11.9711822,4.00849778" id="Fill-4"></path>
                    <path d="M6.60215111,4.25546667 L6.33477333,3.54346667 C6.27059556,3.56728889 6.20695111,3.59217778 6.14419556,3.6192 L6.43930667,4.32106667 L6.60215111,4.25546667 Z" id="Fill-6"></path>
                    <path d="M7.10024889,4.10599111 L6.93153778,3.36430222 C6.86309333,3.38012444 6.79571556,3.39701333 6.72798222,3.41532444 L6.93420444,4.14848 C6.98878222,4.13265778 7.04442667,4.11861333 7.10024889,4.10599111" id="Fill-8"></path>
                    <path d="M5.68444444,4.74218667 L5.24,4.12369778 C5.18417778,4.16458667 5.12888889,4.20529778 5.07466667,4.24778667 L5.54453333,4.84689778 L5.68444444,4.74218667 Z" id="Fill-10"></path>
                    <path d="M6.12638222,4.46952889 L5.77011556,3.79752889 C5.70896,3.82970667 5.64887111,3.86295111 5.58984889,3.89797333 L5.97420444,4.55486222 L6.12638222,4.46952889 Z" id="Fill-12"></path>
                    <path d="M4.05971556,7.35885006 L3.30860444,7.20458667 C3.29776,7.28616619 3.28780444,7.37056627 3.27909333,7.45409849 L4.03429333,7.56822303 C4.04122667,7.49749185 4.05029333,7.42806247 4.05971556,7.35885006" id="Fill-14"></path>
                    <path d="M4.36570667,6.33601778 L3.67432889,6.01779556 C3.64552889,6.08037333 3.61779556,6.14419556 3.59130667,6.20872889 L4.29690667,6.49566222 C4.31877333,6.44108444 4.34170667,6.38792889 4.36570667,6.33601778" id="Fill-16"></path>
                    <path d="M4.18028444,6.82439111 L3.45317333,6.59843556 C3.43237333,6.66528 3.41317333,6.73212444 3.39592889,6.79968 L4.13281778,6.99008 C4.14686222,6.93443556 4.16286222,6.87896889 4.18028444,6.82439111" id="Fill-18"></path>
                    <polygon id="Fill-20" points="4.61596444 5.87431111 3.96760889 5.47431111 3.86414222 5.64835556 4.52423111 6.02737778"></polygon>
                    <path d="M5.27872,5.07292444 L4.76067556,4.51559111 C4.71000889,4.56234667 4.66040889,4.61052444 4.61169778,4.66030222 L5.15409778,5.19416889 C5.19480889,5.15328 5.23640889,5.11239111 5.27872,5.07292444" id="Fill-22"></path>
                    <path d="M4.9216,5.45121778 L4.33368889,4.96837333 C4.28924444,5.02170667 4.24693333,5.07575111 4.20551111,5.13032889 L4.81244444,5.58935111 L4.9216,5.45121778 Z" id="Fill-24"></path>
                    <path d="M7.70084525,4.02186667 L7.6079624,3.26382222 C7.51763383,3.2704 7.42753746,3.27875556 7.33720889,3.28817778 L7.47699758,4.04195556 C7.55107165,4.03395556 7.62561014,4.02737778 7.70084525,4.02186667" id="Fill-26"></path>
                    <path d="M11.7395733,6.58984889 L12.4528178,6.32531556 C12.4284622,6.25936 12.4025067,6.19464889 12.3747733,6.13064889 L11.6753956,6.43073778 C11.6979733,6.48300444 11.7191289,6.53580444 11.7395733,6.58984889" id="Fill-28"></path>
                    <path d="M11.4399111,5.96588444 C11.4690667,6.01459556 11.4971556,6.06490667 11.5245333,6.11592889 L12.1967111,5.75770667 C12.1634667,5.69601778 12.1293333,5.63557333 12.0939556,5.57619556 L11.4399111,5.96588444 Z" id="Fill-30"></path>
                    <path d="M11.1444267,5.53454222 C11.1792711,5.57934222 11.2142933,5.62467556 11.24736,5.67214222 L11.8685156,5.23196444 C11.8278044,5.17560889 11.7854933,5.11960889 11.7431822,5.06467556 L11.1444267,5.53454222 Z" id="Fill-32"></path>
                    <path d="M11.9763733,7.68882747 L12.7337067,7.59198076 C12.7271289,7.50159049 12.7187733,7.41281433 12.7093511,7.32519111 L11.9555733,7.46400474 L11.9763733,7.68882747 Z" id="Fill-34"></path>
                    <polygon id="Fill-36" points="11.8923556 7.09244444 12.6326222 6.91431111 12.5816 6.71644444 11.8482667 6.92177778"></polygon>
                    <path d="M10.1124978,4.60851556 L10.5180089,3.96496 C10.4582756,3.92673778 10.3981867,3.89118222 10.33792,3.85722667 L9.96369778,4.52016 C10.0138311,4.54807111 10.0632533,4.57793778 10.1124978,4.60851556" id="Fill-38"></path>
                    <path d="M9.38784,3.44904889 C9.32117333,3.42807111 9.25415111,3.40940444 9.18606222,3.39233778 L8.99921778,4.12958222 C9.05468444,4.14398222 9.11032889,4.15944889 9.16490667,4.17580444 L9.38784,3.44904889 Z" id="Fill-40"></path>
                    <path d="M8.85044525,3.30704 C8.76511542,3.29601778 8.68175474,3.28552889 8.5966437,3.27806222 L8.48680889,4.03326222 C8.55660432,4.04072889 8.62727492,4.04784 8.69750794,4.05797333 L8.85044525,3.30704 Z" id="Fill-42"></path>
                    <path d="M10.5385244,4.91310222 L11.0201244,4.32448 C10.9666133,4.28056889 10.9125689,4.23754667 10.8569244,4.19594667 L10.4018133,4.80696889 C10.4485689,4.84110222 10.4937244,4.87665778 10.5385244,4.91310222" id="Fill-44"></path>
                    <polygon id="Fill-46" points="9.96631111 3.66666667 9.77768889 3.58648889 9.49377778 4.29244444 9.65662222 4.36231111"></polygon>
                    <polygon id="Fill-48" points="8.28365865 4.00641778 8.32434747 3.24517333 7.96071111 3.24286222 8.03151608 4.00410667"></polygon>
                    <path d="M5.86734222,11.3805511 L5.45756444,12.0212622 C5.51587556,12.0591289 5.57560889,12.0948622 5.63569778,12.1289956 L6.01632,11.4703289 C5.96600889,11.4408178 5.91587556,11.4111289 5.86734222,11.3805511" id="Fill-50"></path>
                    <path d="M10.2975644,11.2696178 L10.7336533,11.8927289 C10.7905422,11.8532622 10.8472533,11.8120178 10.9016533,11.7700622 L10.4367644,11.1666844 C10.3912533,11.2018844 10.3448533,11.2363733 10.2975644,11.2696178" id="Fill-52"></path>
                    <path d="M9.85484444,11.5394133 L10.2024,12.21728 C10.2651556,12.1845689 10.3266667,12.1509689 10.3871111,12.1155911 L10.0027556,11.4585244 C9.95422222,11.4866133 9.90515556,11.5141689 9.85484444,11.5394133" id="Fill-54"></path>
                    <path d="M10.7031111,10.9427022 L11.2190222,11.5032356 C11.2700444,11.4557689 11.3196444,11.4081244 11.3687111,11.35888 L10.8284444,10.8218133 C10.7875556,10.8639467 10.7457778,10.9039467 10.7031111,10.9427022" id="Fill-56"></path>
                    <path d="M9.37706667,11.75296 L9.63644444,12.4678044 C9.70168889,12.44416 9.76693333,12.4187378 9.83128889,12.3920711 L9.53653333,11.6902044 C9.48373333,11.7127822 9.43057778,11.7335822 9.37706667,11.75296" id="Fill-58"></path>
                    <path d="M11.0649244,10.5637156 L11.6462578,11.0559822 C11.6912356,11.0021156 11.7347911,10.9480711 11.7771022,10.8926044 L11.1728356,10.4298489 C11.1378133,10.4751822 11.10208,10.5205156 11.0649244,10.5637156" id="Fill-60"></path>
                    <polygon id="Fill-62" points="8.86944 11.9006933 9.04686222 12.64096 9.24170667 12.59296 9.04544 11.8571378"></polygon>
                    <polygon id="Fill-64" points="11.62256 9.68732444 12.3139378 10.0069689 12.3962489 9.81852444 11.6940267 9.52590222"></polygon>
                    <path d="M12.7565867,7.93888 L11.9960533,8.02199688 L11.9921422,8.26047468 L12.7526756,8.30251636 C12.7556978,8.20852663 12.7565867,8.11598661 12.7565867,8.02199688 L12.7565867,7.93888 Z" id="Fill-66"></path>
                    <path d="M11.9357511,8.72739843 L12.6863289,8.88452525 C12.6971733,8.80414473 12.7081956,8.72098509 12.7172622,8.63910812 L11.9618844,8.52088889 C11.9544178,8.59100807 11.9458844,8.65963081 11.9357511,8.72739843" id="Fill-68"></path>
                    <polygon id="Fill-70" points="4.00657778 7.87011814 3.24622222 7.82220444 3.24302222 8.18584081 4.00373333 8.13951366"></polygon>
                    <polygon id="Fill-72" points="8.35381333 11.9809067 8.45867267 12.7378844 8.7174497 12.7154844 8.58957246 11.9602844"></polygon>
                    <path d="M11.8131911,9.19747556 L12.5374578,9.42947556 C12.5584356,9.36298667 12.5783467,9.29614222 12.5968356,9.22787556 L11.8606578,9.03285333 C11.8462578,9.08832 11.8302578,9.14307556 11.8131911,9.19747556" id="Fill-74"></path>
                    <polygon id="Fill-76" points="11.3708267 10.1480889 12.0163378 10.5509333 12.1215822 10.3770667 11.4634489 9.99502222"></polygon>
                    <path d="M4.73774222,10.3078933 L4.11409778,10.7448711 C4.15480889,10.8021156 4.19676444,10.85936 4.23978667,10.9142933 L4.83907556,10.4442489 C4.80405333,10.4003378 4.77009778,10.3546489 4.73774222,10.3078933" id="Fill-78"></path>
                    <path d="M4.25207111,9.38862222 L3.53687111,9.64871111 C3.56087111,9.71484444 3.58647111,9.78026667 3.61367111,9.84373333 L4.31464889,9.54755556 C4.29296,9.49457778 4.27109333,9.44266667 4.25207111,9.38862222" id="Fill-80"></path>
                    <polygon id="Fill-82" points="4.46275556 9.86136889 3.79093333 10.2194133 3.89031111 10.3977244 4.54826667 10.0158578"></polygon>
                    <path d="M4.02048,8.37187556 L3.26243556,8.46384036 C3.26936889,8.55627438 3.27665778,8.64612775 3.28572444,8.73551192 L4.04021333,8.60014535 L4.02048,8.37187556 Z" id="Fill-84"></path>
                    <path d="M4.10172444,8.88533333 L3.36074667,9.0576 C3.37639111,9.12444444 3.39274667,9.19146667 3.41070222,9.25688889 L4.14439111,9.05617778 L4.10172444,8.88533333 Z" id="Fill-86"></path>
                    <path d="M6.58688,12.54288 C6.65212444,12.5629689 6.71772444,12.5827022 6.78403556,12.6001244 L6.97888,11.8643022 L6.80981333,11.8159467 L6.58688,12.54288 Z" id="Fill-88"></path>
                    <polygon id="Fill-90" points="7.19608889 12.6902756 7.43997264 12.7188978 7.55972525 11.9636978 7.33904768 11.93792"></polygon>
                    <path d="M5.06595556,10.71216 L4.50631111,11.2278933 C4.5536,11.2789156 4.60142222,11.3290489 4.65066667,11.3782933 L5.18648889,10.83696 C5.14577778,10.79696 5.1056,10.7551822 5.06595556,10.71216" id="Fill-92"></path>
                    <polygon id="Fill-94" points="7.8593224 11.9921956 7.80764444 12.7532622 8.17128081 12.7571733 8.14859292 11.9959289"></polygon>
                    <path d="M5.44512,11.0729244 L4.95587556,11.6555022 C5.00903111,11.6999467 5.06343111,11.7431467 5.11836444,11.78528 L5.58094222,11.1803022 C5.53472,11.1454578 5.48992,11.1099022 5.44512,11.0729244" id="Fill-96"></path>
                    <path d="M6.00407111,12.3192711 C6.06629333,12.3482489 6.12940444,12.3756267 6.19287111,12.4024711 L6.48531556,11.6995378 L6.32424889,11.6293156 L6.00407111,12.3192711 Z" id="Fill-98"></path>
                </g>
            </g>
        </g>
    </g>
</svg>

